<svg t="1588382681134" class="icon" viewBox="0 0 1024 1024" version="1.1" xmlns="http://www.w3.org/2000/svg" p-id="2919" width="200" height="200"><path d="M921.879362 189.608027h-17.385938V70.139313c0-34.873182-28.292313-63.165495-63.151169-63.165495H102.105288c-34.873182 0-63.136843 28.292313-63.136843 63.165495V953.904689c0 34.857833 28.263661 63.12354 63.136843 63.12354h819.774074c34.857833 0 63.152193-28.264684 63.152193-63.12354V252.773522c0-34.873182-28.293337-63.165495-63.152193-63.165495zM841.342255 70.139313V189.608027H102.105288v-38.339114h506.188656c11.638038 0 21.05039-9.439981 21.05039-21.078019 0-11.597106-9.412352-21.05039-21.05039-21.05039H102.105288V70.139313h739.236967z m80.537107 883.764353H102.105288V252.773522h819.774074V443.847943H608.293944c-23.219795 0-42.07315 18.866659-42.07315 42.10078V720.743814c0 23.233097 18.853356 42.071104 42.07315 42.071104h313.585418V953.903666z m0-233.159852H608.293944V485.9477h313.585418V720.743814z" p-id="2920"></path><path d="M706.022561 151.268913h59.092745c11.610409 0 21.05039-9.439981 21.050389-21.078019 0-11.597106-9.441004-21.05039-21.050389-21.05039h-59.092745c-11.611432 0-21.05039 9.454307-21.05039 21.05039 0 11.638038 9.438958 21.078019 21.05039 21.078019zM722.675812 651.660551c26.686749 0 48.328609-21.628557 48.328609-48.329632 0-26.714378-21.640836-48.329632-48.328609-48.329632s-48.328609 21.61423-48.328608 48.329632c0.001023 26.701075 21.64186 48.329632 48.328608 48.329632z" p-id="2921"></path></svg>