<svg t="1585372057990" class="icon" viewBox="0 0 1024 1024" version="1.1" xmlns="http://www.w3.org/2000/svg" p-id="4421" width="200" height="200"><path d="M939.9 238L598.5 37.2c-26.7-15.7-56.6-23.6-86.5-23.6s-59.8 7.9-86.5 23.6L84.1 238C32 268.7 0 324.6 0 385.1v454.5c0 94.3 76.4 170.7 170.7 170.7h682.7c94.3 0 170.7-76.4 170.7-170.7V385.1c-0.1-60.5-32.1-116.4-84.2-147.1zM597.3 925H426.7V753c0-47.1 38.3-85.3 85.3-85.3s85.3 38.3 85.3 85.3v172z m341.4-85.3c0 47.1-38.3 85.3-85.3 85.3H682.7V753c0-94.1-76.5-170.7-170.7-170.7S341.3 658.9 341.3 753v172H170.7c-47.1 0-85.3-38.3-85.3-85.3V385.1c0-30.1 16.1-58.3 42.1-73.6l341.3-200.8c13-7.6 28-11.7 43.2-11.7 15.2 0 30.2 4.1 43.3 11.8l341.3 200.8c25.9 15.3 42.1 43.4 42.1 73.6v454.5z" p-id="4422"></path></svg>